<svg width="800" height="200" viewBox="0 0 800 200" fill="none"
	xmlns="http://www.w3.org/2000/svg">
	<g id="Frame 4" clip-path="url(#clip0_19_156)">
		<g id="Rectangle 1" opacity="0.5" filter="url(#filter0_f_19_156)">
			<rect x="167.485" y="77.8865" width="480.282" height="38" transform="rotate(2.58487 167.485 77.8865)" fill="url(#paint0_linear_19_156)"/>
		</g>
		<path id="&#60;" d="M190.375 101.525L219.175 89.45L221.725 97.55L200.725 105.725L221.725 113.9L219.175 122L190.375 109.85V101.525Z" fill="#7D0BD6"/>
		<g id="skepfusky">
			<path d="M249.1 118.025C251.35 118.025 253.075 117.875 254.275 117.575C255.475 117.225 256.075 116.55 256.075 115.55C256.075 114.9 255.875 114.35 255.475 113.9C255.125 113.45 254.6 113.075 253.9 112.775C253.25 112.425 252.475 112.1 251.575 111.8C250.725 111.5 249.825 111.2 248.875 110.9C247.525 110.5 246.15 110.05 244.75 109.55C243.35 109 242.075 108.325 240.925 107.525C239.775 106.725 238.825 105.725 238.075 104.525C237.325 103.275 236.95 101.725 236.95 99.875C236.95 98.375 237.225 96.975 237.775 95.675C238.375 94.325 239.275 93.15 240.475 92.15C241.725 91.1 243.3 90.3 245.2 89.75C247.1 89.15 249.375 88.85 252.025 88.85C254.325 88.85 256.45 89.025 258.4 89.375C260.4 89.725 262.125 90.225 263.575 90.875L262.15 98.675C261.3 98.425 259.975 98.025 258.175 97.475C256.375 96.875 254.35 96.575 252.1 96.575C249.75 96.575 248.15 96.875 247.3 97.475C246.5 98.025 246.1 98.625 246.1 99.275C246.1 99.825 246.275 100.325 246.625 100.775C247.025 101.175 247.525 101.55 248.125 101.9C248.775 102.25 249.5 102.6 250.3 102.95C251.15 103.25 252.05 103.55 253 103.85C254.35 104.3 255.75 104.8 257.2 105.35C258.65 105.9 259.95 106.6 261.1 107.45C262.3 108.25 263.275 109.3 264.025 110.6C264.775 111.85 265.15 113.4 265.15 115.25C265.15 116.7 264.875 118.075 264.325 119.375C263.775 120.675 262.85 121.8 261.55 122.75C260.3 123.7 258.65 124.45 256.6 125C254.55 125.55 252.025 125.825 249.025 125.825C245.975 125.825 243.375 125.475 241.225 124.775C239.075 124.075 237.35 123.45 236.05 122.9L237.475 115.175C239.225 115.875 241.075 116.525 243.025 117.125C245.025 117.725 247.05 118.025 249.1 118.025Z" fill="url(#paint1_linear_19_156)"/>
			<path d="M283.525 103.7C284.425 102.65 285.325 101.55 286.225 100.4C287.175 99.2 288.075 97.975 288.925 96.725C289.825 95.475 290.675 94.275 291.475 93.125C292.275 91.925 292.975 90.8 293.575 89.75H304.675C303.775 90.9 302.75 92.15 301.6 93.5C300.45 94.85 299.25 96.225 298 97.625C296.8 99.025 295.575 100.375 294.325 101.675C293.125 102.975 292.025 104.175 291.025 105.275C292.275 106.475 293.625 107.925 295.075 109.625C296.525 111.275 297.95 113 299.35 114.8C300.75 116.6 302.025 118.4 303.175 120.2C304.375 122 305.325 123.6 306.025 125H295.45C294.85 123.75 294.05 122.35 293.05 120.8C292.1 119.2 291.075 117.65 289.975 116.15C288.875 114.6 287.75 113.15 286.6 111.8C285.5 110.4 284.475 109.25 283.525 108.35V125H274.225V74.525L283.525 72.95V103.7Z" fill="url(#paint2_linear_19_156)"/>
			<path d="M309.325 107.675C309.325 104.575 309.8 101.85 310.75 99.5C311.7 97.15 312.95 95.2 314.5 93.65C316.05 92.05 317.825 90.85 319.825 90.05C321.825 89.25 323.875 88.85 325.975 88.85C331.175 88.85 335.125 90.4 337.825 93.5C340.525 96.55 341.875 101.025 341.875 106.925C341.875 107.525 341.85 108.15 341.8 108.8C341.8 109.45 341.775 109.975 341.725 110.375H318.85C318.85 112.675 319.8 114.5 321.7 115.85C323.6 117.15 326.05 117.8 329.05 117.8C330.9 117.8 332.65 117.6 334.3 117.2C336 116.8 337.425 116.4 338.575 116L339.85 123.875C338.25 124.425 336.55 124.875 334.75 125.225C332.95 125.625 330.925 125.825 328.675 125.825C325.675 125.825 322.975 125.45 320.575 124.7C318.225 123.9 316.2 122.75 314.5 121.25C312.85 119.7 311.575 117.8 310.675 115.55C309.775 113.3 309.325 110.675 309.325 107.675ZM332.95 104C332.95 103.05 332.825 102.15 332.575 101.3C332.325 100.4 331.925 99.6 331.375 98.9C330.825 98.2 330.125 97.65 329.275 97.25C328.425 96.8 327.375 96.575 326.125 96.575C324.925 96.575 323.875 96.775 322.975 97.175C322.125 97.575 321.4 98.125 320.8 98.825C320.25 99.525 319.8 100.325 319.45 101.225C319.15 102.125 318.95 103.05 318.85 104H332.95Z" fill="url(#paint3_linear_19_156)"/>
			<path d="M370.3 107.675C370.3 104.525 369.675 101.95 368.425 99.95C367.175 97.9 365.275 96.875 362.725 96.875C362.025 96.875 361.275 96.925 360.475 97.025C359.675 97.075 359 97.125 358.45 97.175V116.525C359.05 116.925 359.85 117.25 360.85 117.5C361.85 117.75 362.85 117.875 363.85 117.875C366.05 117.875 367.675 117 368.725 115.25C369.775 113.45 370.3 110.925 370.3 107.675ZM379.675 107.375C379.675 110.075 379.375 112.575 378.775 114.875C378.175 117.125 377.3 119.075 376.15 120.725C375 122.325 373.55 123.575 371.8 124.475C370.05 125.375 368.025 125.825 365.725 125.825C363.375 125.825 360.95 125.25 358.45 124.1V137.375H349.225V90.875C350.925 90.325 353 89.875 355.45 89.525C357.95 89.175 360.4 89 362.8 89C368.25 89 372.425 90.65 375.325 93.95C378.225 97.25 379.675 101.725 379.675 107.375Z" fill="url(#paint4_linear_19_156)"/>
			<path d="M392.425 125V97.4H384.7V89.75H392.425V87.725C392.425 84.875 392.825 82.525 393.625 80.675C394.475 78.775 395.6 77.275 397 76.175C398.4 75.025 400 74.225 401.8 73.775C403.6 73.275 405.45 73.025 407.35 73.025C409.3 73.025 411.3 73.2 413.35 73.55C415.4 73.9 417.25 74.475 418.9 75.275L417.325 82.775C416.175 82.375 414.725 81.975 412.975 81.575C411.275 81.125 409.65 80.9 408.1 80.9C407.25 80.9 406.425 80.975 405.625 81.125C404.875 81.275 404.2 81.6 403.6 82.1C403.05 82.6 402.6 83.325 402.25 84.275C401.9 85.175 401.725 86.375 401.725 87.875V89.75H416.2V97.4H401.725V125H392.425Z" fill="url(#paint5_linear_19_156)"/>
			<path d="M452.35 123.8C450.65 124.25 448.575 124.7 446.125 125.15C443.725 125.6 441.1 125.825 438.25 125.825C435.35 125.825 432.975 125.425 431.125 124.625C429.275 123.825 427.8 122.7 426.7 121.25C425.65 119.75 424.925 118 424.525 116C424.125 114 423.925 111.8 423.925 109.4V89.75H433.15V108.2C433.15 111.45 433.525 113.875 434.275 115.475C435.075 117.025 436.6 117.8 438.85 117.8C440.25 117.8 441.65 117.675 443.05 117.425V89.75H452.35V123.8Z" fill="url(#paint6_linear_19_156)"/>
			<path d="M474.1 118.025C476.35 118.025 478.075 117.875 479.275 117.575C480.475 117.225 481.075 116.55 481.075 115.55C481.075 114.9 480.875 114.35 480.475 113.9C480.125 113.45 479.6 113.075 478.9 112.775C478.25 112.425 477.475 112.1 476.575 111.8C475.725 111.5 474.825 111.2 473.875 110.9C472.525 110.5 471.15 110.05 469.75 109.55C468.35 109 467.075 108.325 465.925 107.525C464.775 106.725 463.825 105.725 463.075 104.525C462.325 103.275 461.95 101.725 461.95 99.875C461.95 98.375 462.225 96.975 462.775 95.675C463.375 94.325 464.275 93.15 465.475 92.15C466.725 91.1 468.3 90.3 470.2 89.75C472.1 89.15 474.375 88.85 477.025 88.85C479.325 88.85 481.45 89.025 483.4 89.375C485.4 89.725 487.125 90.225 488.575 90.875L487.15 98.675C486.3 98.425 484.975 98.025 483.175 97.475C481.375 96.875 479.35 96.575 477.1 96.575C474.75 96.575 473.15 96.875 472.3 97.475C471.5 98.025 471.1 98.625 471.1 99.275C471.1 99.825 471.275 100.325 471.625 100.775C472.025 101.175 472.525 101.55 473.125 101.9C473.775 102.25 474.5 102.6 475.3 102.95C476.15 103.25 477.05 103.55 478 103.85C479.35 104.3 480.75 104.8 482.2 105.35C483.65 105.9 484.95 106.6 486.1 107.45C487.3 108.25 488.275 109.3 489.025 110.6C489.775 111.85 490.15 113.4 490.15 115.25C490.15 116.7 489.875 118.075 489.325 119.375C488.775 120.675 487.85 121.8 486.55 122.75C485.3 123.7 483.65 124.45 481.6 125C479.55 125.55 477.025 125.825 474.025 125.825C470.975 125.825 468.375 125.475 466.225 124.775C464.075 124.075 462.35 123.45 461.05 122.9L462.475 115.175C464.225 115.875 466.075 116.525 468.025 117.125C470.025 117.725 472.05 118.025 474.1 118.025Z" fill="url(#paint7_linear_19_156)"/>
			<path d="M508.525 103.7C509.425 102.65 510.325 101.55 511.225 100.4C512.175 99.2 513.075 97.975 513.925 96.725C514.825 95.475 515.675 94.275 516.475 93.125C517.275 91.925 517.975 90.8 518.575 89.75H529.675C528.775 90.9 527.75 92.15 526.6 93.5C525.45 94.85 524.25 96.225 523 97.625C521.8 99.025 520.575 100.375 519.325 101.675C518.125 102.975 517.025 104.175 516.025 105.275C517.275 106.475 518.625 107.925 520.075 109.625C521.525 111.275 522.95 113 524.35 114.8C525.75 116.6 527.025 118.4 528.175 120.2C529.375 122 530.325 123.6 531.025 125H520.45C519.85 123.75 519.05 122.35 518.05 120.8C517.1 119.2 516.075 117.65 514.975 116.15C513.875 114.6 512.75 113.15 511.6 111.8C510.5 110.4 509.475 109.25 508.525 108.35V125H499.225V74.525L508.525 72.95V103.7Z" fill="url(#paint8_linear_19_156)"/>
			<path d="M567.4 89.75C566.45 93.05 565.525 96.3 564.625 99.5C563.775 102.65 562.875 105.75 561.925 108.8C560.975 111.8 559.95 114.75 558.85 117.65C557.8 120.55 556.65 123.375 555.4 126.125C554.45 128.125 553.5 129.85 552.55 131.3C551.65 132.75 550.625 133.925 549.475 134.825C548.375 135.775 547.125 136.475 545.725 136.925C544.375 137.375 542.775 137.6 540.925 137.6C539.375 137.6 537.95 137.475 536.65 137.225C535.4 136.975 534.35 136.65 533.5 136.25L535.225 128.525C536.225 128.975 537.1 129.275 537.85 129.425C538.65 129.625 539.5 129.725 540.4 129.725C542.2 129.725 543.65 129.125 544.75 127.925C545.85 126.725 546.725 125.3 547.375 123.65C545.175 119.25 542.975 114.225 540.775 108.575C538.575 102.875 536.575 96.6 534.775 89.75H544.375C544.825 91.6 545.325 93.575 545.875 95.675C546.475 97.775 547.1 99.875 547.75 101.975C548.4 104.075 549.075 106.15 549.775 108.2C550.525 110.2 551.275 112.075 552.025 113.825C552.525 112.075 553.05 110.2 553.6 108.2C554.15 106.15 554.675 104.1 555.175 102.05C555.675 99.95 556.15 97.85 556.6 95.75C557.1 93.65 557.55 91.65 557.95 89.75H567.4Z" fill="url(#paint9_linear_19_156)"/>
		</g>
		<g id="/&#62;">
			<path d="M579.125 137.375H569.525L590.525 72.575H599.975L579.125 137.375Z" fill="#7D0BD6"/>
			<path d="M637.925 109.925L609.125 122.075L606.5 113.975L627.575 105.8L606.5 97.625L609.125 89.525L637.925 101.6V109.925Z" fill="#7D0BD6"/>
		</g>
	</g>
	<defs>
		<filter id="filter0_f_19_156" x="84.7709" y="-3.11346" width="643.507" height="221.622" filterUnits="userSpaceOnUse" color-interpolation-filters="sRGB">
			<feFlood flood-opacity="0" result="BackgroundImageFix"/>
			<feBlend mode="normal" in="SourceGraphic" in2="BackgroundImageFix" result="shape"/>
			<feGaussianBlur stdDeviation="40.5" result="effect1_foregroundBlur_19_156"/>
		</filter>
		<linearGradient id="paint0_linear_19_156" x1="202.891" y1="105.441" x2="600.913" y2="79.0969" gradientUnits="userSpaceOnUse">
			<stop stop-color="#09C8F2"/>
			<stop offset="0.357368" stop-color="#B90AE5"/>
			<stop offset="0.695918" stop-color="#09C8F2"/>
			<stop offset="1" stop-color="#B90AE5"/>
		</linearGradient>
		<linearGradient id="paint1_linear_19_156" x1="223.021" y1="94.4516" x2="574.415" y2="125.383" gradientUnits="userSpaceOnUse">
			<stop stop-color="#D10AD5"/>
			<stop offset="1" stop-color="#096BDE"/>
		</linearGradient>
		<linearGradient id="paint2_linear_19_156" x1="223.021" y1="94.4516" x2="574.415" y2="125.383" gradientUnits="userSpaceOnUse">
			<stop stop-color="#D10AD5"/>
			<stop offset="1" stop-color="#096BDE"/>
		</linearGradient>
		<linearGradient id="paint3_linear_19_156" x1="223.021" y1="94.4516" x2="574.415" y2="125.383" gradientUnits="userSpaceOnUse">
			<stop stop-color="#D10AD5"/>
			<stop offset="1" stop-color="#096BDE"/>
		</linearGradient>
		<linearGradient id="paint4_linear_19_156" x1="223.021" y1="94.4516" x2="574.415" y2="125.383" gradientUnits="userSpaceOnUse">
			<stop stop-color="#D10AD5"/>
			<stop offset="1" stop-color="#096BDE"/>
		</linearGradient>
		<linearGradient id="paint5_linear_19_156" x1="223.021" y1="94.4516" x2="574.415" y2="125.383" gradientUnits="userSpaceOnUse">
			<stop stop-color="#D10AD5"/>
			<stop offset="1" stop-color="#096BDE"/>
		</linearGradient>
		<linearGradient id="paint6_linear_19_156" x1="223.021" y1="94.4516" x2="574.415" y2="125.383" gradientUnits="userSpaceOnUse">
			<stop stop-color="#D10AD5"/>
			<stop offset="1" stop-color="#096BDE"/>
		</linearGradient>
		<linearGradient id="paint7_linear_19_156" x1="223.021" y1="94.4516" x2="574.415" y2="125.383" gradientUnits="userSpaceOnUse">
			<stop stop-color="#D10AD5"/>
			<stop offset="1" stop-color="#096BDE"/>
		</linearGradient>
		<linearGradient id="paint8_linear_19_156" x1="223.021" y1="94.4516" x2="574.415" y2="125.383" gradientUnits="userSpaceOnUse">
			<stop stop-color="#D10AD5"/>
			<stop offset="1" stop-color="#096BDE"/>
		</linearGradient>
		<linearGradient id="paint9_linear_19_156" x1="223.021" y1="94.4516" x2="574.415" y2="125.383" gradientUnits="userSpaceOnUse">
			<stop stop-color="#D10AD5"/>
			<stop offset="1" stop-color="#096BDE"/>
		</linearGradient>
		<clipPath id="clip0_19_156">
			<rect width="800" height="200" fill="white"/>
		</clipPath>
	</defs>
</svg>
